<svg width="2054" height="1655" xmlns="http://www.w3.org/2000/svg" xmlns:xlink="http://www.w3.org/1999/xlink" overflow="hidden"><defs><clipPath id="clip0"><rect x="1043" y="470" width="2054" height="1655"/></clipPath></defs><g clip-path="url(#clip0)" transform="translate(-1043 -470)"><path d="M1635 640.002C1635 559.92 1699.92 495 1780 495L2360 495C2440.08 495 2505 559.92 2505 640.002L2505 1628C2505 1708.08 2440.08 1773 2360 1773L1780 1773C1699.92 1773 1635 1708.08 1635 1628Z" stroke="#000000" stroke-width="50.4167" stroke-miterlimit="8" fill="#FFFFFF" fill-rule="evenodd"/><path d="M1754 703.336C1754 645.161 1801.16 598 1859.34 598L2280.66 598C2338.84 598 2386 645.161 2386 703.336L2386 1771.66C2386 1829.84 2338.84 1877 2280.66 1877L1859.34 1877C1801.16 1877 1754 1829.84 1754 1771.66Z" stroke="#000000" stroke-width="50.4167" stroke-miterlimit="8" fill="#FFFFFF" fill-rule="evenodd"/><path d="M1068 1035C1068 917.365 1163.37 822 1281 822L2859 822C2976.64 822 3072 917.365 3072 1035L3072 1887C3072 2004.63 2976.64 2100 2859 2100L1281 2100C1163.37 2100 1068 2004.63 1068 1887Z" stroke="#000000" stroke-width="50.4167" stroke-miterlimit="8" fill="#FFFFFF" fill-rule="evenodd"/><path d="M1276.33 1353.22C1263.65 1333.16 1269.65 1306.62 1289.71 1293.95L1435.01 1202.17C1455.07 1189.5 1481.61 1195.49 1494.28 1215.55L1680.97 1511.12C1693.64 1531.19 1687.65 1557.72 1667.59 1570.39L1522.29 1662.17C1502.23 1674.84 1475.69 1668.85 1463.02 1648.79Z" stroke="#000000" stroke-width="45.8333" stroke-miterlimit="8" fill="#FFFFFF" fill-rule="evenodd"/><path d="M1605 1505.5C1605 1425.14 1671.49 1360 1753.5 1360 1835.51 1360 1902 1425.14 1902 1505.5 1902 1585.86 1835.51 1651 1753.5 1651 1671.49 1651 1605 1585.86 1605 1505.5Z" stroke="#000000" stroke-width="45.8333" stroke-miterlimit="8" fill="#FFFFFF" fill-rule="evenodd"/><path d="M2622.14 1285.54C2771.87 1142.62 2966.97 1442.03 2520.12 1510.36 2277.32 1129.06 2631.12 1078.75 2622.14 1285.54Z" stroke="#000000" stroke-width="45.8333" stroke-miterlimit="8" fill="#FFFFFF" fill-rule="evenodd"/></g></svg>