<svg width="1465" height="1466" xmlns="http://www.w3.org/2000/svg" xmlns:xlink="http://www.w3.org/1999/xlink" overflow="hidden"><defs><clipPath id="clip0"><rect x="1195" y="759" width="1465" height="1466"/></clipPath></defs><g clip-path="url(#clip0)" transform="translate(-1195 -759)"><path d="M1254 1343.34C1254 1248.71 1330.71 1172 1425.34 1172L2410.66 1172C2505.29 1172 2582 1248.71 2582 1343.34L2582 2028.66C2582 2123.29 2505.29 2200 2410.66 2200L1425.34 2200C1330.71 2200 1254 2123.29 1254 2028.66Z" stroke="#000000" stroke-width="50.4167" stroke-miterlimit="8" fill="#FFFFFF" fill-rule="evenodd"/><path d="M1521 915.835C1521 843.025 1580.02 784 1652.84 784L2180.16 784C2252.98 784 2312 843.025 2312 915.835L2312 1559.16C2312 1631.98 2252.98 1691 2180.16 1691L1652.84 1691C1580.02 1691 1521 1631.98 1521 1559.16Z" stroke="#000000" stroke-width="50.4167" stroke-miterlimit="8" fill="#FFFFFF" fill-rule="evenodd"/><path d="M1650 991.002C1650 941.847 1689.85 902 1739 902L2095 902C2144.15 902 2184 941.847 2184 991.002L2184 1557C2184 1606.15 2144.15 1646 2095 1646L1739 1646C1689.85 1646 1650 1606.15 1650 1557Z" stroke="#000000" stroke-width="50.4167" stroke-miterlimit="8" fill="#FFFFFF" fill-rule="evenodd"/><path d="M1220 1210.78C1220 1165.06 1283.82 1128 1362.55 1128L2492.45 1128C2571.18 1128 2635 1165.06 2635 1210.78L2635 1541.89C2635 1587.61 2571.18 1624.67 2492.45 1624.67 2320.22 1623.9 2099.97 1872.77 1927.74 1872 1723.34 1872.77 1566.96 1623.9 1362.55 1624.67 1283.82 1624.67 1220 1587.61 1220 1541.89L1220 1210.78Z" stroke="#000000" stroke-width="50.4167" stroke-miterlimit="8" fill="#FFFFFF" fill-rule="evenodd"/><path d="M1855 1766.67C1855 1755.25 1864.25 1746 1875.67 1746L1958.33 1746C1969.75 1746 1979 1755.25 1979 1766.67L1979 1971.33C1979 1982.75 1969.75 1992 1958.33 1992L1875.67 1992C1864.25 1992 1855 1982.75 1855 1971.33Z" stroke="#000000" stroke-width="45.8333" stroke-miterlimit="8" fill="#FFFFFF" fill-rule="evenodd"/></g></svg>