<svg width="1041" height="1784" xmlns="http://www.w3.org/2000/svg" xmlns:xlink="http://www.w3.org/1999/xlink" overflow="hidden"><defs><clipPath id="clip0"><rect x="1577" y="344" width="1041" height="1784"/></clipPath></defs><g clip-path="url(#clip0)" transform="translate(-1577 -344)"><path d="M1770 1829.83C1770 1815.57 1781.57 1804 1795.83 1804L1899.17 1804C1913.43 1804 1925 1815.57 1925 1829.83L1925 2077.17C1925 2091.43 1913.43 2103 1899.17 2103L1795.83 2103C1781.57 2103 1770 2091.43 1770 2077.17Z" stroke="#000000" stroke-width="50.4167" stroke-miterlimit="8" fill="#FFFFFF" fill-rule="evenodd"/><path d="M2270 1829.83C2270 1815.57 2281.57 1804 2295.83 1804L2399.17 1804C2413.43 1804 2425 1815.57 2425 1829.83L2425 2077.17C2425 2091.43 2413.43 2103 2399.17 2103L2295.83 2103C2281.57 2103 2270 2091.43 2270 2077.17Z" stroke="#000000" stroke-width="50.4167" stroke-miterlimit="8" fill="#FFFFFF" fill-rule="evenodd"/><path d="M1866 450.667C1866 441.462 1873.46 434 1882.67 434L1949.33 434C1958.54 434 1966 441.462 1966 450.667L1966 1004.33C1966 1013.54 1958.54 1021 1949.33 1021L1882.67 1021C1873.46 1021 1866 1013.54 1866 1004.33Z" stroke="#000000" stroke-width="50.4167" stroke-miterlimit="8" fill="#FFFFFF" fill-rule="evenodd"/><path d="M2229 450.667C2229 441.462 2236.46 434 2245.67 434L2312.33 434C2321.54 434 2329 441.462 2329 450.667L2329 1004.33C2329 1013.54 2321.54 1021 2312.33 1021L2245.67 1021C2236.46 1021 2229 1013.54 2229 1004.33Z" stroke="#000000" stroke-width="50.4167" stroke-miterlimit="8" fill="#FFFFFF" fill-rule="evenodd"/><path d="M1602 893.17C1602 801.949 1675.95 728 1767.17 728L2427.83 728C2519.05 728 2593 801.949 2593 893.17L2593 1840.83C2593 1932.05 2519.05 2006 2427.83 2006L1767.17 2006C1675.95 2006 1602 1932.05 1602 1840.83Z" stroke="#000000" stroke-width="50.4167" stroke-linecap="round" stroke-miterlimit="8" fill="#FFFFFF" fill-rule="evenodd"/><path d="M2374.33 369C2383.54 369 2391 376.462 2391 385.667L2391 452.333C2391 461.538 2383.54 469 2374.33 469L1820.67 469C1811.46 469 1804 461.538 1804 452.333L1804 385.667C1804 376.462 1811.46 369 1820.67 369Z" stroke="#000000" stroke-width="50.4167" stroke-miterlimit="8" fill="#FFFFFF" fill-rule="evenodd"/><path d="M2305 1013.5C2305 970.698 2339.7 936 2382.5 936L2382.5 936C2425.3 936 2460 970.698 2460 1013.5L2460 1720.5C2460 1763.3 2425.3 1798 2382.5 1798L2382.5 1798C2339.7 1798 2305 1763.3 2305 1720.5Z" stroke="#000000" stroke-width="45.8333" stroke-linecap="round" stroke-miterlimit="8" fill="#FFFFFF" fill-rule="evenodd"/><path d="M2020 1020.5C2020 977.698 2054.7 943 2097.5 943L2097.5 943C2140.3 943 2175 977.698 2175 1020.5L2175 1726.5C2175 1769.3 2140.3 1804 2097.5 1804L2097.5 1804C2054.7 1804 2020 1769.3 2020 1726.5Z" stroke="#000000" stroke-width="45.8333" stroke-linecap="round" stroke-miterlimit="8" fill="#FFFFFF" fill-rule="evenodd"/><path d="M1735 1020.5C1735 977.698 1769.7 943 1812.5 943L1812.5 943C1855.3 943 1890 977.698 1890 1020.5L1890 1726.5C1890 1769.3 1855.3 1804 1812.5 1804L1812.5 1804C1769.7 1804 1735 1769.3 1735 1726.5Z" stroke="#000000" stroke-width="45.8333" stroke-linecap="round" stroke-miterlimit="8" fill="#FFFFFF" fill-rule="evenodd"/></g></svg>