<svg width="835" height="2085" xmlns="http://www.w3.org/2000/svg" xmlns:xlink="http://www.w3.org/1999/xlink" overflow="hidden"><defs><clipPath id="clip0"><rect x="1659" y="194" width="835" height="2085"/></clipPath></defs><g clip-path="url(#clip0)" transform="translate(-1659 -194)"><path d="M1817 2036.5C1817 2025.18 1826.18 2016 1837.5 2016L1919.5 2016C1930.82 2016 1940 2025.18 1940 2036.5L1940 2233.5C1940 2244.82 1930.82 2254 1919.5 2254L1837.5 2254C1826.18 2254 1817 2244.82 1817 2233.5Z" stroke="#000000" stroke-width="50.4167" stroke-miterlimit="8" fill="#FFFFFF" fill-rule="evenodd"/><path d="M2213 2036.5C2213 2025.18 2222.18 2016 2233.5 2016L2315.5 2016C2326.82 2016 2336 2025.18 2336 2036.5L2336 2233.5C2336 2244.82 2326.82 2254 2315.5 2254L2233.5 2254C2222.18 2254 2213 2244.82 2213 2233.5Z" stroke="#000000" stroke-width="50.4167" stroke-miterlimit="8" fill="#FFFFFF" fill-rule="evenodd"/><path d="M1893 311.167C1893 303.895 1898.89 298 1906.17 298L1958.83 298C1966.11 298 1972 303.895 1972 311.167L1972 1379.83C1972 1387.1 1966.11 1393 1958.83 1393L1906.17 1393C1898.89 1393 1893 1387.1 1893 1379.83Z" stroke="#000000" stroke-width="50.4167" stroke-miterlimit="8" fill="#FFFFFF" fill-rule="evenodd"/><path d="M2181 290.167C2181 282.895 2186.89 277 2194.17 277L2246.83 277C2254.11 277 2260 282.895 2260 290.167L2260 1379.83C2260 1387.11 2254.11 1393 2246.83 1393L2194.17 1393C2186.89 1393 2181 1387.11 2181 1379.83Z" stroke="#000000" stroke-width="50.4167" stroke-miterlimit="8" fill="#FFFFFF" fill-rule="evenodd"/><path d="M1684 1289.84C1684 1217.58 1742.58 1159 1814.84 1159L2338.16 1159C2410.42 1159 2469 1217.58 2469 1289.84L2469 2046.16C2469 2118.42 2410.42 2177 2338.16 2177L1814.84 2177C1742.58 2177 1684 2118.42 1684 2046.16Z" stroke="#000000" stroke-width="50.4167" stroke-linecap="round" stroke-miterlimit="8" fill="#FFFFFF" fill-rule="evenodd"/><path d="M2295.83 219C2303.1 219 2309 224.895 2309 232.167L2309 284.833C2309 292.105 2303.1 298 2295.83 298L1857.17 298C1849.89 298 1844 292.105 1844 284.833L1844 232.167C1844 224.895 1849.89 219 1857.17 219Z" stroke="#000000" stroke-width="50.4167" stroke-miterlimit="8" fill="#FFFFFF" fill-rule="evenodd"/><path d="M2241 1386.5C2241 1352.53 2268.53 1325 2302.5 1325L2302.5 1325C2336.47 1325 2364 1352.53 2364 1386.5L2364 1949.5C2364 1983.47 2336.47 2011 2302.5 2011L2302.5 2011C2268.53 2011 2241 1983.47 2241 1949.5Z" stroke="#000000" stroke-width="45.8333" stroke-linecap="round" stroke-miterlimit="8" fill="#FFFFFF" fill-rule="evenodd"/><path d="M2015 1391.5C2015 1357.53 2042.53 1330 2076.5 1330L2076.5 1330C2110.47 1330 2138 1357.53 2138 1391.5L2138 1954.5C2138 1988.47 2110.47 2016 2076.5 2016L2076.5 2016C2042.53 2016 2015 1988.47 2015 1954.5Z" stroke="#000000" stroke-width="45.8333" stroke-linecap="round" stroke-miterlimit="8" fill="#FFFFFF" fill-rule="evenodd"/><path d="M1789 1391.5C1789 1357.53 1816.53 1330 1850.5 1330L1850.5 1330C1884.47 1330 1912 1357.53 1912 1391.5L1912 1954.5C1912 1988.47 1884.47 2016 1850.5 2016L1850.5 2016C1816.53 2016 1789 1988.47 1789 1954.5Z" stroke="#000000" stroke-width="45.8333" stroke-linecap="round" stroke-miterlimit="8" fill="#FFFFFF" fill-rule="evenodd"/><path d="M1758 680.168C1758 635.892 1793.89 600 1838.17 600L2314.83 600C2359.11 600 2395 635.892 2395 680.168L2395 1000.83C2395 1045.11 2359.11 1081 2314.83 1081L1838.17 1081C1793.89 1081 1758 1045.11 1758 1000.83Z" stroke="#000000" stroke-width="50.4167" stroke-linecap="round" stroke-miterlimit="8" fill="#FFFFFF" fill-rule="evenodd"/><path d="M2200 725C2200 695.729 2223.73 672 2253 672L2253 672C2282.27 672 2306 695.729 2306 725L2306 940C2306 969.271 2282.27 993 2253 993L2253 993C2223.73 993 2200 969.271 2200 940Z" stroke="#000000" stroke-width="45.8333" stroke-linecap="round" stroke-miterlimit="8" fill="#FFFFFF" fill-rule="evenodd"/><path d="M2018 730.5C2018 700.953 2041.95 677 2071.5 677L2071.5 677C2101.05 677 2125 700.953 2125 730.5L2125 944.5C2125 974.047 2101.05 998 2071.5 998L2071.5 998C2041.95 998 2018 974.047 2018 944.5Z" stroke="#000000" stroke-width="45.8333" stroke-linecap="round" stroke-miterlimit="8" fill="#FFFFFF" fill-rule="evenodd"/><path d="M1826 733C1826 703.729 1849.73 680 1879 680L1879 680C1908.27 680 1932 703.729 1932 733L1932 948C1932 977.271 1908.27 1001 1879 1001L1879 1001C1849.73 1001 1826 977.271 1826 948Z" stroke="#000000" stroke-width="45.8333" stroke-linecap="round" stroke-miterlimit="8" fill="#FFFFFF" fill-rule="evenodd"/></g></svg>