<svg width="1392" height="1784" xmlns="http://www.w3.org/2000/svg" xmlns:xlink="http://www.w3.org/1999/xlink" overflow="hidden"><defs><clipPath id="clip0"><rect x="1226" y="344" width="1392" height="1784"/></clipPath></defs><g clip-path="url(#clip0)" transform="translate(-1226 -344)"><path d="M1478 1909.5C1478 1851.23 1525.23 1804 1583.5 1804L1583.5 1804C1641.77 1804 1689 1851.23 1689 1909.5L1689 1997.5C1689 2055.77 1641.77 2103 1583.5 2103L1583.5 2103C1525.23 2103 1478 2055.77 1478 1997.5Z" stroke="#000000" stroke-width="50.4167" stroke-miterlimit="8" fill="#FFFFFF" fill-rule="evenodd"/><path d="M2155 1909C2155 1851.01 2202.01 1804 2260 1804L2260 1804C2317.99 1804 2365 1851.01 2365 1909L2365 1998C2365 2055.99 2317.99 2103 2260 2103L2260 2103C2202.01 2103 2155 2055.99 2155 1998Z" stroke="#000000" stroke-width="50.4167" stroke-miterlimit="8" fill="#FFFFFF" fill-rule="evenodd"/><path d="M1608 456.501C1608 444.074 1618.07 434 1630.5 434L1720.5 434C1732.93 434 1743 444.074 1743 456.501L1743 998.5C1743 1010.93 1732.93 1021 1720.5 1021L1630.5 1021C1618.07 1021 1608 1010.93 1608 998.5Z" stroke="#000000" stroke-width="50.4167" stroke-miterlimit="8" fill="#FFFFFF" fill-rule="evenodd"/><path d="M2100 456.667C2100 444.149 2110.15 434 2122.67 434L2213.33 434C2225.85 434 2236 444.149 2236 456.667L2236 998.333C2236 1010.85 2225.85 1021 2213.33 1021L2122.67 1021C2110.15 1021 2100 1010.85 2100 998.333Z" stroke="#000000" stroke-width="50.4167" stroke-miterlimit="8" fill="#FFFFFF" fill-rule="evenodd"/><path d="M1251 941.005C1251 823.365 1346.37 728 1464 728L2380 728C2497.63 728 2593 823.365 2593 941.005L2593 1793C2593 1910.63 2497.63 2006 2380 2006L1464 2006C1346.37 2006 1251 1910.63 1251 1793Z" stroke="#000000" stroke-width="50.4167" stroke-linecap="round" stroke-miterlimit="8" fill="#FFFFFF" fill-rule="evenodd"/><path d="M2303.33 369C2312.54 369 2320 376.462 2320 385.667L2320 452.333C2320 461.538 2312.54 469 2303.33 469L1541.67 469C1532.46 469 1525 461.538 1525 452.333L1525 385.667C1525 376.462 1532.46 369 1541.67 369Z" stroke="#000000" stroke-width="50.4167" stroke-miterlimit="8" fill="#FFFFFF" fill-rule="evenodd"/><path d="M2288 940.5C2288 897.698 2322.7 863 2365.5 863L2365.5 863C2408.3 863 2443 897.698 2443 940.5L2443 1792.5C2443 1835.3 2408.3 1870 2365.5 1870L2365.5 1870C2322.7 1870 2288 1835.3 2288 1792.5Z" stroke="#000000" stroke-width="45.8333" stroke-linecap="round" stroke-miterlimit="8" fill="#FFFFFF" fill-rule="evenodd"/><path d="M1686 940.5C1686 897.698 1720.7 863 1763.5 863L1763.5 863C1806.3 863 1841 897.698 1841 940.5L1841 1792.5C1841 1835.3 1806.3 1870 1763.5 1870L1763.5 1870C1720.7 1870 1686 1835.3 1686 1792.5Z" stroke="#000000" stroke-width="45.8333" stroke-linecap="round" stroke-miterlimit="8" fill="#FFFFFF" fill-rule="evenodd"/><path d="M1984 940.5C1984 897.698 2018.7 863 2061.5 863L2061.5 863C2104.3 863 2139 897.698 2139 940.5L2139 1792.5C2139 1835.3 2104.3 1870 2061.5 1870L2061.5 1870C2018.7 1870 1984 1835.3 1984 1792.5Z" stroke="#000000" stroke-width="45.8333" stroke-linecap="round" stroke-miterlimit="8" fill="#FFFFFF" fill-rule="evenodd"/><path d="M1382 935.92C1382 895.647 1414.65 863 1454.92 863L1464.08 863C1504.35 863 1537 895.647 1537 935.92L1537 1797.08C1537 1837.35 1504.35 1870 1464.08 1870L1454.92 1870C1414.65 1870 1382 1837.35 1382 1797.08Z" stroke="#000000" stroke-width="45.8333" stroke-linecap="round" stroke-miterlimit="8" fill="#FFFFFF" fill-rule="evenodd"/></g></svg>