<svg width="1751" height="1801" xmlns="http://www.w3.org/2000/svg" xmlns:xlink="http://www.w3.org/1999/xlink" overflow="hidden"><defs><clipPath id="clip0"><rect x="1189" y="259" width="1751" height="1801"/></clipPath></defs><g clip-path="url(#clip0)" transform="translate(-1189 -259)"><path d="M1542.31 519.352C1542.31 445.151 1566.82 385 1597.06 385L1816.06 385C1846.3 385 1870.82 445.151 1870.82 519.352L1870.82 1261.39C1870.82 1335.59 1874.89 1393.47 1844.65 1393.47L1567.55 1398C1537.31 1398 1542.31 1335.59 1542.31 1261.39L1542.31 519.352Z" stroke="#000000" stroke-width="50.4167" stroke-miterlimit="8" fill="#FFFFFF" fill-rule="evenodd"/><path d="M2253.31 519.352C2253.31 445.151 2277.82 385 2308.06 385L2527.06 385C2557.3 385 2581.82 445.151 2581.82 519.352L2581.82 1261.39C2581.82 1335.59 2585.89 1393.47 2555.65 1393.47L2278.55 1398C2248.31 1398 2253.31 1335.59 2253.31 1261.39L2253.31 519.352Z" stroke="#000000" stroke-width="50.4167" stroke-miterlimit="8" fill="#FFFFFF" fill-rule="evenodd"/><path d="M1871.36 418.352C1871.36 344.151 1899.82 284 1934.93 284L2189.21 284C2224.32 284 2252.79 344.151 2252.79 418.352L2252.79 1160.39C2252.79 1234.59 2257.52 1292.47 2222.4 1292.47L1900.67 1297C1865.56 1297 1871.36 1234.59 1871.36 1160.39L1871.36 418.352Z" stroke="#000000" stroke-width="50.4167" stroke-miterlimit="8" fill="none" fill-rule="evenodd"/><path d="M1450.15 699.114C1450.15 586.385 1541.5 495 1654.18 495L2470.28 495C2582.97 495 2674.32 586.385 2674.32 699.114L2674.32 1826.45C2674.32 1939.18 2689.49 2027.12 2576.81 2027.12L1544.22 2034C1431.54 2034 1450.15 1939.18 1450.15 1826.45L1450.15 699.114Z" stroke="#000000" stroke-width="50.4167" stroke-miterlimit="8" fill="#FFFFFF" fill-rule="evenodd"/><path d="M2675.05 1363.32C2675.05 1328.19 2692.92 1299.72 2714.95 1299.72L2805.56 1298C2827.6 1298 2915 1462.22 2915 1497.35L2914.46 1970.54C2914.46 2005.67 2917.08 2034.14 2895.04 2034.14L2695.01 2035C2672.97 2035 2675.05 2005.67 2675.05 1970.54L2675.05 1363.32Z" stroke="#000000" stroke-width="50.4167" stroke-miterlimit="8" fill="#FFFFFF" fill-rule="evenodd"/><path d="M0.0512042 65.3157C0.0512042 30.1919 17.5438 1.71854 39.122 1.71854L127.838 0C149.416 0 235 164.224 235 199.348L234.472 672.544C234.472 707.668 237.037 736.141 215.459 736.141L19.5921 737C-1.9861 737 0.0512042 707.668 0.0512042 672.544L0.0512042 65.3157Z" stroke="#000000" stroke-width="50.4167" stroke-miterlimit="8" fill="#FFFFFF" fill-rule="evenodd" transform="matrix(-1 0 0 1 1449 1297)"/><path d="M1596.87 1255C1596.87 1192.59 1666.31 1142 1751.98 1142L2372.38 1142C2458.04 1142 2527.48 1192.59 2527.48 1255L2527.48 1879.1C2527.48 1941.51 2539.02 1990.19 2453.35 1990.19L1668.39 1994C1582.72 1994 1596.87 1941.51 1596.87 1879.1L1596.87 1255Z" stroke="#000000" stroke-width="50.4167" stroke-miterlimit="8" fill="#FFFFFF" fill-rule="evenodd"/><path d="M1726 1398 2398.11 1398" stroke="#000000" stroke-width="45.8333" stroke-miterlimit="8" fill="none" fill-rule="evenodd"/><path d="M2327 1417 2327 1512.5" stroke="#000000" stroke-width="45.8333" stroke-miterlimit="8" fill="none" fill-rule="evenodd"/></g></svg>