<svg width="2054" height="1329" xmlns="http://www.w3.org/2000/svg" xmlns:xlink="http://www.w3.org/1999/xlink" overflow="hidden"><defs><clipPath id="clip0"><rect x="1012" y="573" width="2054" height="1329"/></clipPath></defs><g clip-path="url(#clip0)" transform="translate(-1012 -573)"><path d="M1037 685.355C1037 637.11 1076.11 598 1124.36 598L2953.65 598C3001.89 598 3041 637.11 3041 685.355L3041 1789.64C3041 1837.89 3001.89 1877 2953.65 1877L1124.36 1877C1076.11 1877 1037 1837.89 1037 1789.64Z" stroke="#000000" stroke-width="50.4167" stroke-miterlimit="8" fill="#FFFFFF" fill-rule="evenodd"/><path d="M0 191.5 48.2501 191.5 48.2501 0 144.75 0 144.75 191.5 193 191.5 96.5003 288Z" stroke="#000000" stroke-width="4.58333" stroke-miterlimit="8" fill-rule="evenodd" transform="matrix(1 0 0 -1 2698.5 1000.5)"/><path d="M0 191.5 48.2501 191.5 48.2501 0 144.75 0 144.75 191.5 193 191.5 96.5002 288Z" stroke="#000000" stroke-width="4.58333" stroke-linecap="round" stroke-miterlimit="8" fill-rule="evenodd" transform="matrix(1 0 0 -1 2452.5 1000.5)"/></g></svg>