<svg width="2054" height="1411" xmlns="http://www.w3.org/2000/svg" xmlns:xlink="http://www.w3.org/1999/xlink" overflow="hidden"><defs><clipPath id="clip0"><rect x="1102" y="491" width="2054" height="1411"/></clipPath></defs><g clip-path="url(#clip0)" transform="translate(-1102 -491)"><path d="M1217 685.356C1217 637.111 1256.11 598 1304.36 598L2953.64 598C3001.89 598 3041 637.111 3041 685.356L3041 1789.64C3041 1837.89 3001.89 1877 2953.64 1877L1304.36 1877C1256.11 1877 1217 1837.89 1217 1789.64Z" stroke="#000000" stroke-width="50.4167" stroke-miterlimit="8" fill="#FFFFFF" fill-rule="evenodd"/><path d="M1127 542.773C1127 527.986 1138.99 516 1153.77 516L3104.23 516C3119.01 516 3131 527.986 3131 542.773L3131 881.227C3131 896.013 3119.01 908 3104.23 908L1153.77 908C1138.99 908 1127 896.013 1127 881.227Z" stroke="#000000" stroke-width="50.4167" stroke-miterlimit="8" fill="#FFFFFF" fill-rule="evenodd"/><path d="M1821 1165.5C1821 1102.82 1871.82 1052 1934.5 1052L2323.5 1052C2386.18 1052 2437 1102.82 2437 1165.5L2437 1165.5C2437 1228.18 2386.18 1279 2323.5 1279L1934.5 1279C1871.82 1279 1821 1228.18 1821 1165.5Z" stroke="#000000" stroke-width="50.4167" stroke-miterlimit="8" fill="#FFFFFF" fill-rule="evenodd"/></g></svg>