<svg width="1062" height="1455" xmlns="http://www.w3.org/2000/svg" xmlns:xlink="http://www.w3.org/1999/xlink" overflow="hidden"><defs><clipPath id="clip0"><rect x="1507" y="543" width="1062" height="1455"/></clipPath></defs><g clip-path="url(#clip0)" transform="translate(-1507 -543)"><path d="M2132.31 702.352C2132.31 628.151 2156.75 568 2186.89 568L2405.23 568C2435.38 568 2459.82 628.151 2459.82 702.352L2459.82 1444.39C2459.82 1518.59 2463.88 1576.47 2433.73 1576.47L2157.48 1581C2127.33 1581 2132.31 1518.59 2132.31 1444.39L2132.31 702.352Z" stroke="#000000" stroke-width="50.4167" stroke-miterlimit="8" fill="#FFFFFF" fill-rule="evenodd"/><path d="M1611.31 702.352C1611.31 628.151 1635.82 568 1666.06 568L1885.06 568C1915.3 568 1939.82 628.151 1939.82 702.352L1939.82 1444.39C1939.82 1518.59 1943.89 1576.47 1913.65 1576.47L1636.55 1581C1606.31 1581 1611.31 1518.59 1611.31 1444.39L1611.31 702.352Z" stroke="#000000" stroke-width="50.4167" stroke-miterlimit="8" fill="#FFFFFF" fill-rule="evenodd"/><path d="M1532 1107.8C1532 879.819 1716.82 695 1944.81 695L2131.19 695C2359.18 695 2544 879.819 2544 1107.8L2544 1560.2C2544 1788.18 2359.18 1973 2131.19 1973L1944.81 1973C1716.82 1973 1532 1788.18 1532 1560.2Z" stroke="#000000" stroke-width="50.4167" stroke-miterlimit="8" fill="#FFFFFF" fill-rule="evenodd"/><path d="M1532 1295.8C1532 1236.81 1579.81 1189 1638.8 1189L2437.2 1189C2496.19 1189 2544 1236.81 2544 1295.8L2544 1866.2C2544 1925.19 2496.19 1973 2437.2 1973L1638.8 1973C1579.81 1973 1532 1925.19 1532 1866.2Z" stroke="#000000" stroke-width="50.4167" stroke-miterlimit="8" fill="#FFFFFF" fill-rule="evenodd"/><path d="M1713 1583 2385.11 1583" stroke="#000000" stroke-width="45.8333" stroke-miterlimit="8" fill="none" fill-rule="evenodd"/><path d="M2030.12 832.604C2037.55 825.659 2049.21 826.051 2056.15 833.481L2123.31 905.33C2130.26 912.76 2129.87 924.412 2122.44 931.357L2050.17 998.91C2042.74 1005.85 2031.09 1005.46 2024.14 998.032L1956.98 926.183C1950.04 918.753 1950.43 907.101 1957.86 900.156Z" stroke="#000000" stroke-width="45.8333" stroke-miterlimit="8" fill="#FFFFFF" fill-rule="evenodd"/></g></svg>