<svg width="2054" height="1655" xmlns="http://www.w3.org/2000/svg" xmlns:xlink="http://www.w3.org/1999/xlink" overflow="hidden"><defs><clipPath id="clip0"><rect x="1043" y="470" width="2054" height="1655"/></clipPath></defs><g clip-path="url(#clip0)" transform="translate(-1043 -470)"><path d="M1635 640.002C1635 559.92 1699.92 495 1780 495L2360 495C2440.08 495 2505 559.92 2505 640.002L2505 1628C2505 1708.08 2440.08 1773 2360 1773L1780 1773C1699.92 1773 1635 1708.08 1635 1628Z" stroke="#000000" stroke-width="50.4167" stroke-miterlimit="8" fill="#FFFFFF" fill-rule="evenodd"/><path d="M1754 703.336C1754 645.161 1801.16 598 1859.34 598L2280.66 598C2338.84 598 2386 645.161 2386 703.336L2386 1771.66C2386 1829.84 2338.84 1877 2280.66 1877L1859.34 1877C1801.16 1877 1754 1829.84 1754 1771.66Z" stroke="#000000" stroke-width="50.4167" stroke-miterlimit="8" fill="#FFFFFF" fill-rule="evenodd"/><path d="M1068 1035C1068 917.365 1163.37 822 1281 822L2859 822C2976.64 822 3072 917.365 3072 1035L3072 1887C3072 2004.63 2976.64 2100 2859 2100L1281 2100C1163.37 2100 1068 2004.63 1068 1887Z" stroke="#000000" stroke-width="50.4167" stroke-miterlimit="8" fill="#FFFFFF" fill-rule="evenodd"/><path d="M2558.5 1134.5C2558.5 1043.37 2635.06 969.5 2729.5 969.5 2823.94 969.5 2900.5 1043.37 2900.5 1134.5 2900.5 1225.63 2823.94 1299.5 2729.5 1299.5 2635.06 1299.5 2558.5 1225.63 2558.5 1134.5ZM2832.77 1203.03C2872.51 1148.71 2858.49 1074 2801.46 1036.16 2758.59 1007.71 2701.73 1007.44 2658.57 1035.48ZM2626.24 1065.97C2586.49 1120.29 2600.51 1195 2657.54 1232.84 2700.41 1261.29 2757.27 1261.56 2800.43 1233.52Z" stroke="#2F528F" stroke-width="4.58333" stroke-miterlimit="8" fill-rule="evenodd"/></g></svg>