<svg width="1040" height="1910" xmlns="http://www.w3.org/2000/svg" xmlns:xlink="http://www.w3.org/1999/xlink" overflow="hidden"><defs><clipPath id="clip0"><rect x="1618" y="370" width="1040" height="1910"/></clipPath></defs><g clip-path="url(#clip0)" transform="translate(-1618 -370)"><path d="M1824 562.891C1824 470.167 1899.17 395 1991.89 395L2295.11 395C2387.83 395 2463 470.167 2463 562.891L2463 1554.11C2463 1646.83 2387.83 1722 2295.11 1722L1991.89 1722C1899.17 1722 1824 1646.83 1824 1554.11Z" stroke="#000000" stroke-width="50.4167" stroke-miterlimit="8" fill="#FFFFFF" fill-rule="evenodd"/><path d="M1922 601.993C1922 541.798 1970.8 493 2030.99 493L2254.01 493C2314.2 493 2363 541.798 2363 601.993L2363 1742.01C2363 1802.2 2314.2 1851 2254.01 1851L2030.99 1851C1970.8 1851 1922 1802.2 1922 1742.01Z" stroke="#000000" stroke-width="50.4167" stroke-miterlimit="8" fill="#FFFFFF" fill-rule="evenodd"/><path d="M1643 1188.11C1643 1044.46 1759.46 928 1903.11 928L2372.89 928C2516.54 928 2633 1044.46 2633 1188.11L2633 1994.89C2633 2138.54 2516.54 2255 2372.89 2255L1903.11 2255C1759.46 2255 1643 2138.54 1643 1994.89Z" stroke="#000000" stroke-width="50.4167" stroke-miterlimit="8" fill="#FFFFFF" fill-rule="evenodd"/><path d="M1643 990.374C1643 955.926 1670.93 928 1705.37 928L2570.63 928C2605.07 928 2633 955.926 2633 990.374L2633 1694.63C2633 1729.07 2605.07 1757 2570.63 1757L1705.37 1757C1670.93 1757 1643 1729.07 1643 1694.63Z" stroke="#000000" stroke-width="50.4167" stroke-miterlimit="8" fill="#FFFFFF" fill-rule="evenodd"/><path d="M1668 1079.08C1668 1067.44 1677.44 1058 1689.08 1058L2586.92 1058C2598.56 1058 2608 1067.44 2608 1079.08L2608 1885.92C2608 1897.56 2598.56 1907 2586.92 1907L1689.08 1907C1677.44 1907 1668 1897.56 1668 1885.92Z" fill="#FFFFFF" fill-rule="evenodd"/><path d="M1744 1058 2544.01 1058" stroke="#000000" stroke-width="45.8333" stroke-miterlimit="8" fill="none" fill-rule="evenodd"/></g></svg>