<svg width="3227" height="1328" xmlns="http://www.w3.org/2000/svg" xmlns:xlink="http://www.w3.org/1999/xlink" overflow="hidden"><defs><clipPath id="clip0"><rect x="287" y="482" width="3227" height="1328"/></clipPath></defs><g clip-path="url(#clip0)" transform="translate(-287 -482)"><path d="M2065.71 889.301C2090.17 922.565 2083.04 969.365 2049.78 993.832L1977.67 1046.87C1944.4 1071.34 1897.6 1064.21 1873.14 1030.95L1848.06 996.852C1823.59 963.589 1830.72 916.789 1863.99 892.322L1936.1 839.28C1969.36 814.813 2016.16 821.944 2040.63 855.207Z" stroke="#000000" stroke-width="50.4167" stroke-miterlimit="8" fill="#FFFFFF" fill-rule="evenodd"/><path d="M3298.44 993C3403.68 993 3489 1078.32 3489 1183.56L3489 1291.44C3489 1396.68 3403.68 1482 3298.44 1482L2978.56 1482C2873.32 1482 2788 1396.68 2788 1291.44L2788 1183.56C2788 1078.32 2873.32 993 2978.56 993Z" stroke="#000000" stroke-width="50.4167" stroke-miterlimit="8" fill="#FFFFFF" fill-rule="evenodd"/><path d="M2958.7 1087C3023.48 1087 3076 1139.52 3076 1204.3L3076 1270.7C3076 1335.48 3023.48 1388 2958.7 1388L1320.3 1388C1255.52 1388 1203 1335.48 1203 1270.7L1203 1204.3C1203 1139.52 1255.52 1087 1320.3 1087Z" stroke="#000000" stroke-width="50.4167" stroke-miterlimit="8" fill="#FFFFFF" fill-rule="evenodd"/><path d="M1604 808.363C1684.42 742.421 1803.06 754.151 1869 834.562L2124.51 1146.13C2190.45 1226.54 2178.72 1345.19 2098.31 1411.13L1786.74 1666.64C1706.33 1732.58 1587.68 1720.85 1521.74 1640.44L1266.24 1328.87C1200.29 1248.46 1212.02 1129.81 1292.43 1063.87Z" stroke="#000000" stroke-width="50.4167" stroke-miterlimit="8" fill="#FFFFFF" fill-rule="evenodd"/><path d="M681.872 610.485C875.3 451.863 1160.69 480.078 1319.31 673.505L1486.35 877.192C1644.97 1070.62 1616.76 1356.01 1423.33 1514.63L1219.64 1681.67C1026.22 1840.29 740.823 1812.08 582.201 1618.65L415.166 1414.96C256.544 1221.54 284.759 936.143 478.186 777.521Z" stroke="#000000" stroke-width="50.4167" stroke-miterlimit="8" fill="#FFFFFF" fill-rule="evenodd"/><path d="M1569.43 871.762C1635.26 817.776 1732.4 827.379 1786.38 893.211L1995.56 1148.29C2049.55 1214.12 2039.94 1311.25 1974.11 1365.24L1706.82 1584.43C1640.99 1638.42 1543.86 1628.81 1489.87 1562.98L1280.69 1307.91C1226.71 1242.07 1236.31 1144.94 1302.14 1090.96Z" fill="#FFFFFF" fill-rule="evenodd"/><path d="M2305.58 1114C2359.38 1114 2403 1157.62 2403 1211.42L2403 1266.58C2403 1320.38 2359.38 1364 2305.58 1364L1901.42 1364C1847.62 1364 1804 1320.38 1804 1266.58L1804 1211.42C1804 1157.62 1847.62 1114 1901.42 1114Z" fill="#FFFFFF" fill-rule="evenodd"/><path d="M3382.87 1054C3413.87 1054 3439 1079.13 3439 1110.13L3439 1364.87C3439 1395.87 3413.87 1421 3382.87 1421L2894.13 1421C2863.13 1421 2838 1395.87 2838 1364.87L2838 1110.13C2838 1079.13 2863.13 1054 2894.13 1054Z" fill="#FFFFFF" fill-rule="evenodd"/></g></svg>