<svg width="1393" height="1814" xmlns="http://www.w3.org/2000/svg" xmlns:xlink="http://www.w3.org/1999/xlink" overflow="hidden"><defs><clipPath id="clip0"><rect x="1504" y="331" width="1393" height="1814"/></clipPath></defs><g clip-path="url(#clip0)" transform="translate(-1504 -331)"><path d="M1557 1630 2026.27 356 2376.73 356 2846 1630Z" stroke="#000000" stroke-width="50.4167" stroke-miterlimit="8" fill="#FFFFFF" fill-rule="evenodd"/><path d="M1529 1678.5C1529 1435.22 1726.22 1238 1969.5 1238L2430.5 1238C2673.78 1238 2871 1435.22 2871 1678.5L2871 1678.5C2871 1921.78 2673.78 2119 2430.5 2119L1969.5 2119C1726.22 2119 1529 1921.78 1529 1678.5Z" stroke="#000000" stroke-width="50.4167" stroke-linecap="round" stroke-miterlimit="8" fill="#FFFFFF" fill-rule="evenodd"/><path d="M1529 1710.42C1529 1666.01 1565.01 1630 1609.42 1630L2790.58 1630C2834.99 1630 2871 1666.01 2871 1710.42L2871 2038.58C2871 2082.99 2834.99 2119 2790.58 2119L1609.42 2119C1565.01 2119 1529 2082.99 1529 2038.58Z" stroke="#000000" stroke-width="50.4167" stroke-linecap="round" stroke-miterlimit="8" fill="#FFFFFF" fill-rule="evenodd"/><path d="M1557 1650.51C1557 1530.93 1653.93 1434 1773.51 1434L2629.49 1434C2749.07 1434 2846 1530.93 2846 1650.51L2846 1705.49C2846 1825.07 2749.07 1922 2629.49 1922L1773.51 1922C1653.93 1922 1557 1825.07 1557 1705.49Z" fill="#FFFFFF" fill-rule="evenodd"/><path d="M1529 1434C1529 1325.75 1616.75 1238 1725 1238L2675 1238C2783.25 1238 2871 1325.75 2871 1434L2871 1434C2871 1542.25 2783.25 1630 2675 1630L1725 1630C1616.75 1630 1529 1542.25 1529 1434Z" stroke="#000000" stroke-width="50.4167" stroke-linecap="round" stroke-miterlimit="8" fill="#FFFFFF" fill-rule="evenodd"/><path d="M2138 1527.67C2138 1516.25 2147.25 1507 2158.67 1507L2241.33 1507C2252.75 1507 2262 1516.25 2262 1527.67L2262 1731.33C2262 1742.75 2252.75 1752 2241.33 1752L2158.67 1752C2147.25 1752 2138 1742.75 2138 1731.33Z" stroke="#000000" stroke-width="45.8333" stroke-miterlimit="8" fill="#FFFFFF" fill-rule="evenodd"/></g></svg>