<svg width="1628" height="1486" xmlns="http://www.w3.org/2000/svg" xmlns:xlink="http://www.w3.org/1999/xlink" overflow="hidden"><defs><clipPath id="clip0"><rect x="1445" y="567" width="1628" height="1486"/></clipPath></defs><g clip-path="url(#clip0)" transform="translate(-1445 -567)"><path d="M1470 716.128C1470 647.574 1525.57 592 1594.13 592L2923.87 592C2992.43 592 3048 647.574 3048 716.128L3048 1903.87C3048 1972.43 2992.43 2028 2923.87 2028L1594.13 2028C1525.57 2028 1470 1972.43 1470 1903.87Z" stroke="#000000" stroke-width="50.4167" stroke-miterlimit="8" fill="#FFFFFF" fill-rule="evenodd"/><path d="M1663 814.289C1663 804.188 1671.19 796 1681.29 796L2834.71 796C2844.81 796 2853 804.188 2853 814.289L2853 1805.71C2853 1815.81 2844.81 1824 2834.71 1824L1681.29 1824C1671.19 1824 1663 1815.81 1663 1805.71Z" stroke="#000000" stroke-width="50.4167" stroke-miterlimit="8" fill="#FFFFFF" fill-rule="evenodd"/><rect x="1883" y="796" width="242" height="1028" stroke="#000000" stroke-width="45.8333" stroke-miterlimit="8" fill="#FFFFFF"/><rect x="2371" y="795" width="242" height="1029" stroke="#000000" stroke-width="45.8333" stroke-miterlimit="8" fill="#FFFFFF"/><path d="M1522.37 880.727 1676.79 687.309 2993.72 1738.71 2839.3 1932.13Z" stroke="#000000" stroke-width="45.8333" stroke-miterlimit="8" fill="#FFFFFF" fill-rule="evenodd"/><path d="M2866.5 1760C2866.5 1748.13 2875.68 1738.5 2887 1738.5 2898.32 1738.5 2907.5 1748.13 2907.5 1760 2907.5 1771.87 2898.32 1781.5 2887 1781.5 2875.68 1781.5 2866.5 1771.87 2866.5 1760Z" stroke="#000000" stroke-width="4.58333" stroke-miterlimit="8" fill-rule="evenodd"/><path d="M2806.5 1829C2806.5 1817.13 2815.9 1807.5 2827.5 1807.5 2839.1 1807.5 2848.5 1817.13 2848.5 1829 2848.5 1840.87 2839.1 1850.5 2827.5 1850.5 2815.9 1850.5 2806.5 1840.87 2806.5 1829Z" stroke="#000000" stroke-width="4.58333" stroke-miterlimit="8" fill-rule="evenodd"/><path d="M1663.5 777C1663.5 765.126 1672.9 755.5 1684.5 755.5 1696.1 755.5 1705.5 765.126 1705.5 777 1705.5 788.874 1696.1 798.5 1684.5 798.5 1672.9 798.5 1663.5 788.874 1663.5 777Z" stroke="#000000" stroke-width="4.58333" stroke-miterlimit="8" fill-rule="evenodd"/><path d="M1602.5 850C1602.5 838.126 1611.68 828.5 1623 828.5 1634.32 828.5 1643.5 838.126 1643.5 850 1643.5 861.874 1634.32 871.5 1623 871.5 1611.68 871.5 1602.5 861.874 1602.5 850Z" stroke="#000000" stroke-width="4.58333" stroke-miterlimit="8" fill-rule="evenodd"/></g></svg>