<svg width="1077" height="1681" xmlns="http://www.w3.org/2000/svg" xmlns:xlink="http://www.w3.org/1999/xlink" overflow="hidden"><defs><clipPath id="clip0"><rect x="703" y="415" width="1077" height="1681"/></clipPath></defs><g clip-path="url(#clip0)" transform="translate(-703 -415)"><path d="M729 616.343C729 713.735 958.678 792.687 1242 792.687 1525.32 792.687 1755 713.735 1755 616.343L1755 1876.66C1755 1974.05 1525.32 2053 1242 2053 958.677 2053 728.998 1974.05 728.998 1876.66Z" fill="#FFFFFF" fill-rule="evenodd"/><path d="M729 616.343C729 518.952 958.678 440 1242 440 1525.32 440 1755 518.952 1755 616.343 1755 713.735 1525.32 792.687 1242 792.687 958.678 792.687 729 713.735 729 616.343Z" fill="#FFFFFF" fill-rule="evenodd"/><path d="M1755 616.343C1755 713.735 1525.32 792.687 1242 792.687 958.677 792.687 728.998 713.735 728.998 616.343 728.998 518.952 958.677 440 1242 440 1525.32 440 1755 518.952 1755 616.343L1755 1876.66C1755 1974.05 1525.32 2053 1242 2053 958.677 2053 728.998 1974.05 728.998 1876.66L729 616.343" stroke="#000000" stroke-width="50.4167" stroke-miterlimit="8" fill="none" fill-rule="evenodd"/><path d="M729 1024.34C729 1121.74 958.678 1200.69 1242 1200.69 1525.32 1200.69 1755 1121.74 1755 1024.34L1755 1858.66C1755 1956.05 1525.32 2035 1242 2035 958.678 2035 729 1956.05 729 1858.66Z" fill="#FFFFFF" fill-rule="evenodd"/><path d="M729 1024.34C729 926.952 958.678 848 1242 848 1525.32 848 1755 926.952 1755 1024.34 1755 1121.74 1525.32 1200.69 1242 1200.69 958.678 1200.69 729 1121.74 729 1024.34Z" fill="#FFFFFF" fill-rule="evenodd"/><path d="M1755 1024.34C1755 1121.74 1525.32 1200.69 1242 1200.69 958.678 1200.69 729 1121.74 729 1024.34 729 926.952 958.678 848 1242 848 1525.32 848 1755 926.952 1755 1024.34L1755 1858.66C1755 1956.05 1525.32 2035 1242 2035 958.678 2035 729 1956.05 729 1858.66L729 1024.34" stroke="#000000" stroke-width="50.4167" stroke-miterlimit="8" fill="none" fill-rule="evenodd"/><path d="M729 1507.24C729 1607.89 958.678 1689.48 1242 1689.48 1525.32 1689.48 1755 1607.89 1755 1507.24L1755 1888.76C1755 1989.41 1525.32 2071 1242 2071 958.678 2071 729 1989.41 729 1888.76Z" fill="#FFFFFF" fill-rule="evenodd"/><path d="M729 1507.24C729 1406.59 958.678 1325 1242 1325 1525.32 1325 1755 1406.59 1755 1507.24 1755 1607.89 1525.32 1689.48 1242 1689.48 958.678 1689.48 729 1607.89 729 1507.24Z" fill="#FFFFFF" fill-rule="evenodd"/><path d="M1755 1507.24C1755 1607.89 1525.32 1689.48 1242 1689.48 958.678 1689.48 729 1607.89 729 1507.24 729 1406.59 958.678 1325 1242 1325 1525.32 1325 1755 1406.59 1755 1507.24L1755 1888.76C1755 1989.41 1525.32 2071 1242 2071 958.678 2071 729 1989.41 729 1888.76L729 1507.24" stroke="#000000" stroke-width="50.4167" stroke-miterlimit="8" fill="none" fill-rule="evenodd"/><path d="M755 859.667C755 838.864 771.864 822 792.667 822L1693.33 822C1714.14 822 1731 838.864 1731 859.667L1731 1010.33C1731 1031.14 1714.14 1048 1693.33 1048L792.667 1048C771.864 1048 755 1031.14 755 1010.33Z" fill="#FFFFFF" fill-rule="evenodd"/><path d="M755 1340.33C755 1316.4 774.401 1297 798.334 1297L1687.67 1297C1711.6 1297 1731 1316.4 1731 1340.33L1731 1513.67C1731 1537.6 1711.6 1557 1687.67 1557L798.334 1557C774.401 1557 755 1537.6 755 1513.67Z" fill="#FFFFFF" fill-rule="evenodd"/><path d="M883 604C883 585.222 918.146 570 961.5 570 1004.85 570 1040 585.222 1040 604 1040 622.778 1004.85 638 961.5 638 918.146 638 883 622.778 883 604Z" stroke="#000000" stroke-width="45.8333" stroke-miterlimit="8" fill="#FFFFFF" fill-rule="evenodd"/><path d="M1183.83 1504.47C1151.76 1474.81 1151.84 1422.56 1184.01 1387.77 1203.43 1366.76 1222.84 1345.76 1242.26 1324.76 1261.62 1342.65 1280.98 1360.55 1300.34 1378.45 1332.41 1408.1 1332.33 1460.35 1300.16 1495.15 1267.99 1529.95 1215.9 1534.12 1183.83 1504.47Z" stroke="#000000" stroke-width="45.8333" stroke-miterlimit="8" fill="#FFFFFF" fill-rule="evenodd"/></g></svg>