<svg width="1240" height="1822" xmlns="http://www.w3.org/2000/svg" xmlns:xlink="http://www.w3.org/1999/xlink" overflow="hidden"><defs><clipPath id="clip0"><rect x="626" y="256" width="1240" height="1822"/></clipPath></defs><g clip-path="url(#clip0)" transform="translate(-626 -256)"><path d="M729 616.343C729 713.735 958.678 792.687 1242 792.687 1525.32 792.687 1755 713.735 1755 616.343L1755 1876.66C1755 1974.05 1525.32 2053 1242 2053 958.677 2053 728.998 1974.05 728.998 1876.66Z" fill="#FFFFFF" fill-rule="evenodd"/><path d="M729 616.343C729 518.952 958.678 440 1242 440 1525.32 440 1755 518.952 1755 616.343 1755 713.735 1525.32 792.687 1242 792.687 958.678 792.687 729 713.735 729 616.343Z" fill="#FFFFFF" fill-rule="evenodd"/><path d="M1755 616.343C1755 713.735 1525.32 792.687 1242 792.687 958.677 792.687 728.998 713.735 728.998 616.343 728.998 518.952 958.677 440 1242 440 1525.32 440 1755 518.952 1755 616.343L1755 1876.66C1755 1974.05 1525.32 2053 1242 2053 958.677 2053 728.998 1974.05 728.998 1876.66L729 616.343" stroke="#000000" stroke-width="50.4167" stroke-miterlimit="8" fill="none" fill-rule="evenodd"/><path d="M651 559.5C651 635.439 917.391 697 1246 697 1574.61 697 1841 635.439 1841 559.5L1841 834.5C1841 910.439 1574.61 972 1246 972 917.391 972 651 910.439 651 834.5Z" fill="#FFFFFF" fill-rule="evenodd"/><path d="M651 559.5C651 483.561 917.391 422 1246 422 1574.61 422 1841 483.561 1841 559.5 1841 635.439 1574.61 697 1246 697 917.391 697 651 635.439 651 559.5Z" fill="#FFFFFF" fill-rule="evenodd"/><path d="M1841 559.5C1841 635.439 1574.61 697 1246 697 917.391 697 651 635.439 651 559.5 651 483.561 917.391 422 1246 422 1574.61 422 1841 483.561 1841 559.5L1841 834.5C1841 910.439 1574.61 972 1246 972 917.391 972 651 910.439 651 834.5L651 559.5" stroke="#000000" stroke-width="50.4167" stroke-miterlimit="8" fill="none" fill-rule="evenodd"/><path d="M1492 1149.5C1492 1106.7 1526.7 1072 1569.5 1072L1569.5 1072C1612.3 1072 1647 1106.7 1647 1149.5L1647 1783.5C1647 1826.3 1612.3 1861 1569.5 1861L1569.5 1861C1526.7 1861 1492 1826.3 1492 1783.5Z" stroke="#000000" stroke-width="45.8333" stroke-linecap="round" stroke-miterlimit="8" fill="#FFFFFF" fill-rule="evenodd"/><path d="M877 1150C877 1106.92 911.922 1072 955 1072L955 1072C998.078 1072 1033 1106.92 1033 1150L1033 1783C1033 1826.08 998.078 1861 955 1861L955 1861C911.922 1861 877 1826.08 877 1783Z" stroke="#000000" stroke-width="45.8333" stroke-linecap="round" stroke-miterlimit="8" fill="#FFFFFF" fill-rule="evenodd"/><path d="M1185 1195.5C1185 1152.7 1219.7 1118 1262.5 1118L1262.5 1118C1305.3 1118 1340 1152.7 1340 1195.5L1340 1829.5C1340 1872.3 1305.3 1907 1262.5 1907L1262.5 1907C1219.7 1907 1185 1872.3 1185 1829.5Z" stroke="#000000" stroke-width="45.8333" stroke-linecap="round" stroke-miterlimit="8" fill="#FFFFFF" fill-rule="evenodd"/><path d="M1055 440C1055 401.892 1085.89 371 1124 371L1368 371C1406.11 371 1437 401.892 1437 440L1437 440C1437 478.108 1406.11 509.001 1368 509.001L1124 509C1085.89 509 1055 478.108 1055 440Z" stroke="#000000" stroke-width="45.8333" stroke-linecap="round" stroke-miterlimit="8" fill="#FFFFFF" fill-rule="evenodd"/></g></svg>