<svg width="2054" height="1655" xmlns="http://www.w3.org/2000/svg" xmlns:xlink="http://www.w3.org/1999/xlink" overflow="hidden"><defs><clipPath id="clip0"><rect x="1043" y="470" width="2054" height="1655"/></clipPath></defs><g clip-path="url(#clip0)" transform="translate(-1043 -470)"><path d="M1635 640.002C1635 559.92 1699.92 495 1780 495L2360 495C2440.08 495 2505 559.92 2505 640.002L2505 1628C2505 1708.08 2440.08 1773 2360 1773L1780 1773C1699.92 1773 1635 1708.08 1635 1628Z" stroke="#000000" stroke-width="50.4167" stroke-miterlimit="8" fill="#FFFFFF" fill-rule="evenodd"/><path d="M1754 703.336C1754 645.161 1801.16 598 1859.34 598L2280.66 598C2338.84 598 2386 645.161 2386 703.336L2386 1771.66C2386 1829.84 2338.84 1877 2280.66 1877L1859.34 1877C1801.16 1877 1754 1829.84 1754 1771.66Z" stroke="#000000" stroke-width="50.4167" stroke-miterlimit="8" fill="#FFFFFF" fill-rule="evenodd"/><path d="M1068 1035C1068 917.365 1163.37 822 1281 822L2859 822C2976.64 822 3072 917.365 3072 1035L3072 1887C3072 2004.63 2976.64 2100 2859 2100L1281 2100C1163.37 2100 1068 2004.63 1068 1887Z" stroke="#000000" stroke-width="50.4167" stroke-miterlimit="8" fill="#FFFFFF" fill-rule="evenodd"/><path d="M1247.5 834.5 1392.6 834.5 1635.5 1461.5 1392.6 2088.5 1247.5 2088.5 1490.4 1461.5Z" stroke="#000000" stroke-width="4.58333" stroke-miterlimit="8" fill-rule="evenodd"/><path d="M1642.5 846.5 1787.6 846.5 2030.5 1473.5 1787.6 2100.5 1642.5 2100.5 1885.4 1473.5Z" stroke="#000000" stroke-width="4.58333" stroke-miterlimit="8" fill-rule="evenodd"/><path d="M2418.5 822.5 2563.6 822.5 2806.5 1449.5 2563.6 2076.5 2418.5 2076.5 2661.4 1449.5Z" stroke="#000000" stroke-width="4.58333" stroke-miterlimit="8" fill-rule="evenodd"/><path d="M2030.5 846.5 2175.6 846.5 2418.5 1473.5 2175.6 2100.5 2030.5 2100.5 2273.4 1473.5Z" stroke="#000000" stroke-width="4.58333" stroke-miterlimit="8" fill-rule="evenodd"/></g></svg>