<svg width="2054" height="1688" xmlns="http://www.w3.org/2000/svg" xmlns:xlink="http://www.w3.org/1999/xlink" overflow="hidden"><defs><clipPath id="clip0"><rect x="1043" y="437" width="2054" height="1688"/></clipPath></defs><g clip-path="url(#clip0)" transform="translate(-1043 -437)"><path d="M1635 640.002C1635 559.92 1699.92 495 1780 495L2360 495C2440.08 495 2505 559.92 2505 640.002L2505 1628C2505 1708.08 2440.08 1773 2360 1773L1780 1773C1699.92 1773 1635 1708.08 1635 1628Z" stroke="#000000" stroke-width="50.4167" stroke-miterlimit="8" fill="#FFFFFF" fill-rule="evenodd"/><path d="M1754 703.336C1754 645.161 1801.16 598 1859.34 598L2280.66 598C2338.84 598 2386 645.161 2386 703.336L2386 1771.66C2386 1829.84 2338.84 1877 2280.66 1877L1859.34 1877C1801.16 1877 1754 1829.84 1754 1771.66Z" stroke="#000000" stroke-width="50.4167" stroke-miterlimit="8" fill="#FFFFFF" fill-rule="evenodd"/><path d="M1068 1035C1068 917.365 1163.37 822 1281 822L2859 822C2976.64 822 3072 917.365 3072 1035L3072 1887C3072 2004.63 2976.64 2100 2859 2100L1281 2100C1163.37 2100 1068 2004.63 1068 1887Z" stroke="#000000" stroke-width="50.4167" stroke-miterlimit="8" fill="#FFFFFF" fill-rule="evenodd"/><path d="M2095.89 911.635C2086.82 843.985 2186.08 800.501 2257.36 804.038 2331.94 814.619 2392.66 793.669 2476.32 771.988 2430.85 826.383 2406.47 879.122 2397.18 938.577 2394.81 1004.71 2309.76 1051.24 2235.71 1046.17 2144.59 1039.86 2080.47 985.379 2095.89 911.635L2095.89 911.635Z" fill="#FFFFFF" fill-rule="evenodd"/><path d="M2095.89 911.635C2089.76 841.018 2173.74 795.45 2257.36 804.038 2335.22 811.796 2398.51 803.708 2476.32 771.988 2431.46 835.906 2407.2 879.419 2397.18 938.577 2392.53 1005.01 2322.98 1064.73 2235.71 1046.17 2161.31 1034.19 2092.1 986.254 2095.89 911.635L2095.89 911.635Z" stroke="#000000" stroke-width="50.4167" stroke-miterlimit="8" fill="none" fill-rule="evenodd"/><path d="M2812.5 572.342C2823.46 641.571 2768.82 693.501 2673.05 707.263 2590.24 712.529 2534.37 737.178 2463.45 778.228 2506.39 710.14 2517.33 648.956 2511.29 600.108 2511.33 535.949 2552.99 467.475 2650.74 465.187 2727.49 457.352 2802.34 516.117 2812.5 572.342L2812.5 572.342Z" fill="#FFFFFF" fill-rule="evenodd"/><path d="M2812.5 572.342C2823.15 639.459 2760.75 694.479 2673.05 707.263 2603.88 725.259 2533.11 735.174 2463.45 778.228 2491.69 712.921 2507.48 656.203 2511.29 600.108 2520.44 534.311 2554.72 464.192 2650.74 465.187 2729.18 451.701 2805.97 503.576 2812.5 572.342L2812.5 572.342Z" stroke="#000000" stroke-width="50.4167" stroke-miterlimit="8" fill="none" fill-rule="evenodd"/><path d="M2518 1186C2492.73 1189.65 2473.27 1110.91 2472 1030.5 2474.26 954.724 2463.03 887.542 2452.54 809.211 2474.91 850.927 2495.53 873.924 2518 875 2541.1 867.228 2563.66 946.643 2564 1030.5 2564.33 1117.79 2544.79 1187.57 2518 1186L2518 1186Z" fill="#FFFFFF" fill-rule="evenodd"/><path d="M2518 1186C2492.21 1187.78 2468.36 1118.11 2472 1030.5 2473.2 946.896 2474.48 889.153 2452.54 809.211 2476.34 852.344 2495.21 872.886 2518 875 2539.65 866.141 2569.83 941.875 2564 1030.5 2562.78 1114.46 2544.2 1185.7 2518 1186L2518 1186Z" stroke="#000000" stroke-width="50.4167" stroke-miterlimit="8" fill="none" fill-rule="evenodd"/><path d="M0 45.8009C-3.64032 20.6409 74.9259 1.2624 155.169 0 230.784 2.24836 297.822-8.93245 375.987-19.3774 334.36 2.90049 311.411 23.4277 310.338 45.8009 318.094 68.7976 238.848 91.2668 155.169 91.6017 65.2649 92.5902-1.97877 72.8277-0.000360892 45.8009L0 45.8009Z" fill="#FFFFFF" fill-rule="evenodd" transform="matrix(-0.908053 -0.418854 -0.418854 0.908053 2847.53 914.466)"/><path d="M0 45.8009C-1.77559 20.1252 67.7485-3.61939 155.169 0 238.595 1.19744 296.215 2.4649 375.987-19.3774 332.946 4.32313 312.447 23.1087 310.338 45.8009 319.178 67.3577 243.605 97.4085 155.169 91.6017 71.539 90.2881 0.182612 71.5765-0.000360892 45.8009L0 45.8009Z" stroke="#000000" stroke-width="50.4167" stroke-miterlimit="8" fill="none" fill-rule="evenodd" transform="matrix(-0.908053 -0.418854 -0.418854 0.908053 2847.53 914.466)"/><path d="M2386 786C2386 736.847 2428.31 697 2480.5 697 2532.69 697 2575 736.847 2575 786 2575 835.153 2532.69 875 2480.5 875 2428.31 875 2386 835.153 2386 786Z" stroke="#000000" stroke-width="45.8333" stroke-miterlimit="8" fill="#FFFFFF" fill-rule="evenodd"/></g></svg>