<svg width="2054" height="1876" xmlns="http://www.w3.org/2000/svg" xmlns:xlink="http://www.w3.org/1999/xlink" overflow="hidden"><defs><clipPath id="clip0"><rect x="1043" y="470" width="2054" height="1876"/></clipPath></defs><g clip-path="url(#clip0)" transform="translate(-1043 -470)"><path d="M1635 640.002C1635 559.92 1699.92 495 1780 495L2360 495C2440.08 495 2505 559.92 2505 640.002L2505 1628C2505 1708.08 2440.08 1773 2360 1773L1780 1773C1699.92 1773 1635 1708.08 1635 1628Z" stroke="#000000" stroke-width="50.4167" stroke-miterlimit="8" fill="#FFFFFF" fill-rule="evenodd"/><path d="M1754 703.336C1754 645.161 1801.16 598 1859.34 598L2280.66 598C2338.84 598 2386 645.161 2386 703.336L2386 1771.66C2386 1829.84 2338.84 1877 2280.66 1877L1859.34 1877C1801.16 1877 1754 1829.84 1754 1771.66Z" stroke="#000000" stroke-width="50.4167" stroke-miterlimit="8" fill="#FFFFFF" fill-rule="evenodd"/><path d="M1068 1035C1068 917.365 1163.37 822 1281 822L2859 822C2976.64 822 3072 917.365 3072 1035L3072 1887C3072 2004.63 2976.64 2100 2859 2100L1281 2100C1163.37 2100 1068 2004.63 1068 1887Z" stroke="#000000" stroke-width="50.4167" stroke-miterlimit="8" fill="#FFFFFF" fill-rule="evenodd"/><path d="M1767.22 1579.86C1788.73 1589.87 1798.05 1615.43 1788.04 1636.94L1715.52 1792.75C1705.5 1814.26 1679.94 1823.58 1658.43 1813.57L1341.49 1666.04C1319.98 1656.03 1310.66 1630.47 1320.67 1608.95L1393.19 1453.15C1403.21 1431.64 1428.76 1422.31 1450.28 1432.33Z" stroke="#000000" stroke-width="45.8333" stroke-miterlimit="8" fill="#FFFFFF" fill-rule="evenodd"/><path d="M1550.84 1280.7C1700.57 1137.78 1895.67 1437.19 1448.82 1505.52 1206.02 1124.22 1559.82 1073.91 1550.84 1280.7Z" stroke="#000000" stroke-width="45.8333" stroke-miterlimit="8" fill="#FFFFFF" fill-rule="evenodd"/><path d="M2676 2178C2676 2097.92 2742.71 2033 2825 2033 2907.29 2033 2974 2097.92 2974 2178 2974 2258.08 2907.29 2323 2825 2323 2742.71 2323 2676 2258.08 2676 2178Z" stroke="#000000" stroke-width="45.8333" stroke-miterlimit="8" fill="#FFFFFF" fill-rule="evenodd"/><path d="M1181 2178C1181 2097.92 1247.71 2033 1330 2033 1412.29 2033 1479 2097.92 1479 2178 1479 2258.08 1412.29 2323 1330 2323 1247.71 2323 1181 2258.08 1181 2178Z" stroke="#000000" stroke-width="45.8333" stroke-miterlimit="8" fill="#FFFFFF" fill-rule="evenodd"/><path d="M2698.62 1472.89C2692.03 1495.17 2668.62 1507.89 2646.34 1501.29L2479.83 1452.03C2457.55 1445.44 2444.83 1422.03 2451.42 1399.75L2499.16 1238.4C2505.75 1216.12 2529.16 1203.4 2551.44 1209.99L2717.95 1259.26C2740.23 1265.85 2752.95 1289.25 2746.36 1311.53Z" stroke="#000000" stroke-width="45.8333" stroke-miterlimit="8" fill="#FFFFFF" fill-rule="evenodd"/></g></svg>