<?xml version="1.0" encoding="utf-8"?>
<svg viewBox="0 0 340 348" xmlns="http://www.w3.org/2000/svg">
  <polyline style="stroke-miterlimit: 3; paint-order: stroke; stroke: currentColor; stroke-width: 3px; fill: none; stroke-linejoin: round; stroke-linecap: round; stroke-dasharray: 1327;" points="87.15 311.676 4.656 312.209 4.07 342.442 141.922 342.442 142.508 311.046 86.781 311.628 89.127 9.884 283.88 9.302 281.534 80.232 261.003 37.791 182.234 38.275 124.324 101.744 119.631 311.046"/>
  <ellipse style="stroke-miterlimit: 3; paint-order: stroke; stroke: currentColor; stroke-width: 3px; fill: none; stroke-linejoin: round; stroke-linecap: round; stroke-dasharray: 1327;" cx="298.501" cy="97.401" rx="23.464" ry="23.547"/>
  <polygon style="stroke-miterlimit: 3; paint-order: stroke; stroke: currentColor; stroke-width: 3px; fill: none; stroke-linejoin: round; stroke-linecap: round; stroke-dasharray: 1327;" points="276.16 118.712 257.39 123.364 233.339 194.875 250.936 198.364 266.775 154.178 255.044 229.759 253.283 287.898 271.469 290.805 280.268 230.34 287.306 292.55 306.664 289.643 305.492 227.433 297.279 155.34 311.944 196.619 334.235 189.061 314.877 128.015 286.72 119.294"/>
  <polygon style="stroke: currentColor; stroke-width: 3px; fill: none; stroke-linejoin: round; stroke-linecap: round; stroke-dasharray: 1327;" points="123.741 37.487 123.208 73.196 153.587 36.954"/>
</svg>